<mxfile host="app.diagrams.net" modified="2023-09-22T04:57:58.738Z" agent="Mozilla/5.0 (Windows NT 6.1; Win64; x64) AppleWebKit/537.36 (KHTML, like Gecko) Chrome/97.0.4692.99 Safari/537.36" version="21.8.0" etag="NZfqL8vt7Dt8LC0R5Ce9" type="github">
  <diagram name="第 1 页" id="wUz59CMMeAC_a2vOcePQ">
    <mxGraphModel>
      <root>
        <mxCell id="0" />
        <mxCell id="1" parent="0" />
      </root>
    </mxGraphModel>
  </diagram>
</mxfile>
